<?xml version="1.0" standalone="no"?>
<!DOCTYPE svg PUBLIC "-//W3C//DTD SVG 20010904//EN"
 "http://www.w3.org/TR/2001/REC-SVG-20010904/DTD/svg10.dtd">
<svg version="1.0" xmlns="http://www.w3.org/2000/svg"
 width="1280.000000pt" height="1172.000000pt" viewBox="0 0 1280.000000 1172.000000"
 preserveAspectRatio="xMidYMid meet">
<g transform="translate(0.000000,1172.000000) scale(0.100000,-0.100000)"
fill="#000000" stroke="none">
<path d="M5830 6566 c0 -3353 -3 -4567 -11 -4572 -7 -4 -983 965 -2413 2395
-1320 1320 -2406 2401 -2411 2401 -6 0 -190 -180 -410 -400 l-400 -400 2990
-2993 2990 -2994 235 0 235 0 2990 2994 2990 2993 -400 400 c-220 220 -404
400 -410 400 -5 0 -1091 -1081 -2411 -2401 -1430 -1430 -2406 -2399 -2413
-2395 -8 5 -11 1219 -11 4572 l0 4564 -570 0 -570 0 0 -4564z"/>
</g>
</svg>
